<?xml version="1.0" encoding="UTF-8"?>
<svg width="1039px" height="457px" viewBox="0 0 1039 457" version="1.1" xmlns="http://www.w3.org/2000/svg" xmlns:xlink="http://www.w3.org/1999/xlink">
    <!-- Generator: Sketch 59 (86127) - https://sketch.com -->
    <title>bike</title>
    <desc>Created with Sketch.</desc>
    <defs>
        <linearGradient x1="50%" y1="100%" x2="50%" y2="0%" id="linearGradient-1">
            <stop stop-color="#94EB97" offset="0%"></stop>
            <stop stop-color="#6AD67F" stop-opacity="0.302" offset="100%"></stop>
        </linearGradient>
        <linearGradient x1="50%" y1="100%" x2="50%" y2="0%" id="linearGradient-2">
            <stop stop-color="#D7652C" offset="0%"></stop>
            <stop stop-color="#EA733B" offset="59.6%"></stop>
        </linearGradient>
        <linearGradient x1="50%" y1="100%" x2="50%" y2="0%" id="linearGradient-3">
            <stop stop-color="#3D89C3" offset="0%"></stop>
            <stop stop-color="#276EB7" offset="100%"></stop>
        </linearGradient>
        <linearGradient x1="0%" y1="50%" x2="100%" y2="50%" id="linearGradient-4">
            <stop stop-color="#DC732D" offset="0%"></stop>
            <stop stop-color="#E48C34" offset="59.6%"></stop>
        </linearGradient>
        <polygon id="path-5" points="0.06 0.053 175.449 0.053 175.449 89.4759896 0.06 89.4759896"></polygon>
        <polygon id="path-7" points="0 0.527 116.741586 0.527 116.741586 123.94 0 123.94"></polygon>
    </defs>
    <g id="Page-1" stroke="none" stroke-width="1" fill="none" fill-rule="evenodd">
        <g id="bike" transform="translate(0.000000, -4.000000)">
            <path d="M2.624,273.952116 C21.379,213.909408 135.198,173.005059 140.378,171.191844 C340.867,101.073147 497.188,221.560675 775.661,159.980858 C870.604,138.982032 919.281,110.202225 970.582,122.963293 C1039.538,140.124441 1056.46,218.236293 1017.472,276.523231 C928.953,408.8314 509.272,503.404873 237.386,441.30342 C129.655,416.68465 -21.806,352.192756 2.624,273.952116 Z" id="路径_21_1_" fill="#5BBB6E" fill-rule="nonzero"></path>
            <path d="M186.967,81.3804923 C211.54,52.9175817 245.214,13.9201846 302.687,6.30646938 C363.06,-1.69621686 437.917,26.4980771 462.875,68.4554912 C468.292,77.5561921 473.443,90.8143477 489.669,100.276984 C516.799,116.099208 551.449,107.625571 552.95,107.236599 C596.628,95.9686498 592.602,60.0298208 628.198,52.0471936 C665.779,43.6215232 687.524,79.7984443 724.542,68.4554912 C748.764,61.0284123 748.608,42.7424138 774.14,36.1368835 C801.732,28.9993526 829.198,43.3014506 840.266,49.0618847 C902.39,81.4014235 945.566,179.243333 909.816,245.448642 C878.496,303.445442 798.535,315.035209 664.688,334.442769 C400.376,372.759903 253.34,304.57747 217.747,286.710967 C174.734,265.122203 147.9,243.457564 137.935,213.626278 C119.754,159.214814 166.762,104.775442 186.967,81.3804923 Z" id="Path_70" fill="url(#linearGradient-1)" opacity="0.5"></path>
            <g transform="translate(601.500000, 231.000000) rotate(-8.000000) translate(-601.500000, -231.000000) translate(384.000000, 29.000000)">
                <g id="Group_35" transform="translate(358.738725, 326.547320) rotate(4.992081) translate(-358.738725, -326.547320) translate(295.251903, 263.560394)" stroke="#032044" stroke-linecap="square" stroke-width="0.999792478">
                    <line x1="62.770971" y1="0" x2="62.770971" y2="125.873873" id="Path_8"></line>
                    <line x1="0" y1="65.8593299" x2="126.120822" y2="59.1097309" id="Path_9"></line>
                    <line x1="30.5766534" y1="8.01233692" x2="95.5421688" y2="116.964722" id="Path_10"></line>
                    <line x1="4.94597339" y1="87.3498693" x2="121.16685" y2="37.6131928" id="Path_11"></line>
                    <line x1="8.95114206" y1="29.7278296" x2="117.159682" y2="95.2492296" id="Path_12"></line>
                    <line x1="17.6643335" y1="106.644864" x2="108.445491" y2="18.3181978" id="Path_13"></line>
                    <line x1="1.79562729" y1="47.0682303" x2="124.316196" y2="77.9008305" id="Path_14"></line>
                    <line x1="36.4094427" y1="120.076076" x2="89.6983818" y2="4.89298439" id="Path_15"></line>
                </g>
                <ellipse id="Ellipse_18" stroke="#032044" stroke-width="15.9966797" transform="translate(357.663428, 326.671451) rotate(4.992081) translate(-357.663428, -326.671451) " cx="357.663428" cy="326.671451" rx="71.2862035" ry="71.1242371"></ellipse>
                <path d="M337.599627,59.3892432 C331.360256,64.2902259 327.540715,68.1364276 326.141006,70.9278482 C324.741296,73.7192688 320.042272,71.6220374 312.043932,64.6361541 L322.393784,52.5796566 L337.599627,59.3892432 Z" id="路径-453_1_" fill="#ECA188" transform="translate(324.821780, 62.351465) rotate(4.992081) translate(-324.821780, -62.351465) "></path>
                <path d="M349.059278,24.4172138 C356.119812,45.6967969 356.972968,57.5729985 351.618746,60.0458186 C343.591412,63.7510495 335.038188,63.7510495 325.814102,59.3839559 C319.666045,56.4685611 322.813059,46.2686782 335.255143,28.7843073 L349.059278,24.4172138 Z" id="路径-452_1_" fill="#ECA188" transform="translate(338.923351, 43.582158) rotate(4.992081) translate(-338.923351, -43.582158) "></path>
                <polygon id="路径-460_1_" fill="#936246" transform="translate(352.403356, 264.744975) rotate(4.992081) translate(-352.403356, -264.744975) " points="348.886586 206.116144 362.926672 323.373805 352.402857 323.373805 341.880041 206.116144"></polygon>
                <circle id="Ellipse_19" fill="#936246" fill-rule="nonzero" transform="translate(355.123394, 324.197023) rotate(4.992081) translate(-355.123394, -324.197023) " cx="355.123394" cy="324.197023" r="11.6385842"></circle>
                <path d="M336.384253,171.020986 C353.273415,170.141835 361.716662,177.610951 361.713996,193.428335 L352.97281,194.187177 L344.441581,206.762567 C329.499349,191.232457 317.03227,190.450619 307.040344,204.417054 L305.964568,216.52654 L310.354656,216.52654 C312.293587,207.416431 316.011815,202.861377 321.509341,202.861377 C327.006867,202.861377 331.962838,206.793894 336.377255,214.658928 L336.377255,222.777243 L348.274785,222.777243 L348.274785,209.858924 L361.707997,196.9686 L373.614526,195.788845 C371.269013,180.995915 367.30017,171.725173 361.707997,167.976618 C353.326737,162.346786 340.022498,161.389985 332.198122,167.976618 C331.978835,168.292552 333.374212,169.307341 336.384253,171.020986 Z" id="路径-468_1_" fill="#491F21" transform="translate(339.789547, 193.082841) rotate(4.992081) translate(-339.789547, -193.082841) "></path>
                <polygon id="路径-469_1_" fill="#E6CFD0" transform="translate(352.027837, 186.989291) rotate(4.992081) translate(-352.027837, -186.989291) " points="341.985421 176.465975 367.016226 191.070943 369.691671 197.512606 337.002456 184.82424 334.364003 176.465975"></polygon>
                <polygon id="路径-470_1_" fill="#E6CFD0" transform="translate(347.512852, 199.801952) rotate(4.992081) translate(-347.512852, -199.801952) " points="338.184289 187.399526 359.179931 201.613576 361.794388 212.204377 347.955261 205.461777 333.231317 190.781824"></polygon>
                <polygon id="路径-467_1_" fill="#936246" transform="translate(139.749386, 305.764834) rotate(4.992081) translate(-139.749386, -305.764834) " points="199.881405 302.518008 85.5031456 299.751582 79.6173673 308.508764 199.881405 311.778086"></polygon>
                <circle id="Ellipse_20" fill="#936246" fill-rule="nonzero" transform="translate(205.136627, 313.344294) rotate(4.992081) translate(-205.136627, -313.344294) " cx="205.136627" cy="313.344294" r="19.0740409"></circle>
                <circle id="Ellipse_21" fill="#936246" fill-rule="nonzero" transform="translate(77.635394, 294.078023) rotate(4.992081) translate(-77.635394, -294.078023) " cx="77.6353945" cy="294.078023" r="11.6385842"></circle>
                <path d="M320.508725,79.1498202 C319.076059,127.857154 327.030725,160.05282 344.372725,175.73682 L335.638725,184.59382 L291.202725,145.23482 L320.508725,79.1498202 Z" id="路径-455_2_" fill="url(#linearGradient-2)"></path>
                <g id="分组-44_1_" transform="translate(77.329725, 299.663320) rotate(4.992081) translate(-77.329725, -299.663320) translate(13.842903, 236.676394)" stroke="#032044" stroke-linecap="square" stroke-width="0.999792478">
                    <line x1="62.770971" y1="0" x2="62.770971" y2="125.873873" id="直线-4_1_"></line>
                    <line x1="0" y1="65.8593299" x2="126.120822" y2="59.1097309" id="Path_1"></line>
                    <line x1="30.5766534" y1="8.01233692" x2="95.5421688" y2="116.964722" id="Path_2"></line>
                    <line x1="4.94597339" y1="87.3498693" x2="121.16685" y2="37.6131928" id="Path_3"></line>
                    <line x1="8.95114206" y1="29.7278296" x2="117.159682" y2="95.2492296" id="Path_4"></line>
                    <line x1="17.6643335" y1="106.644864" x2="108.445491" y2="18.3181978" id="Path_5"></line>
                    <line x1="1.79562729" y1="47.0682303" x2="124.316196" y2="77.9008305" id="Path_6"></line>
                    <line x1="36.4094427" y1="120.076076" x2="89.6983818" y2="4.89298439" id="Path_7"></line>
                </g>
                <ellipse id="Ellipse_17" stroke="#032044" stroke-width="15.9966797" transform="translate(77.609136, 299.897552) rotate(4.992081) translate(-77.609136, -299.897552) " cx="77.6091365" cy="299.897552" rx="71.6091365" ry="71.1242371"></ellipse>
                <path d="M350.027513,17.0732356 C349.124367,31.4869105 343.16827,38.6937479 332.159222,38.6937479 C333.129687,57.7404612 321.852694,61.0654377 298.328244,48.6686775 C275.973551,67.3921245 256.492927,69.1084349 239.886374,53.8176087 C229.987762,65.5631708 219.897857,70.3248491 209.616657,68.1026437 C194.200857,64.7653364 187.661215,48.4917142 187.661215,41.3661932 C187.661215,34.2406722 195.433601,18.1850048 220.223456,18.1850048 C245.01331,18.1850048 243.202686,23.3339361 256.016026,20.7634696 C266.576501,11.2101192 277.348265,6.63006986 288.331319,7.02332157 C295.141239,7.60986649 301.667884,11.9219714 307.911255,19.9596364 C310.865217,21.2653518 314.252088,21.1601786 317.119344,19.6736958 C319.028947,18.7118954 323.628992,11.6683574 332.160222,11.2254494 C335.315567,11.0601503 341.27133,13.0094124 350.027513,17.0732356 Z" id="路径-451_1_" fill="#2E3980" transform="translate(268.844364, 37.816479) rotate(4.992081) translate(-268.844364, -37.816479) "></path>
                <path d="M239.639478,202.256782 C249.23082,216.658459 252.98704,228.780277 250.908139,238.622234 L170.795767,306.977046 L189.647854,327.18885 C189.821151,320.280951 188.357789,314.782092 185.257765,310.692275 C233.994983,287.833019 262.167468,273.558316 269.775222,267.868163 C281.184854,259.328936 296.375701,254.166007 294.701049,229.316165 C293.586613,212.75227 287.382235,197.771713 276.087912,184.374494 L239.639478,202.256782 Z" id="路径-459_1_" fill="#EFBAA8" transform="translate(232.812089, 255.781672) rotate(4.992081) translate(-232.812089, -255.781672) "></path>
                <polygon id="路径-461_1_" fill="#936246" transform="translate(281.626180, 271.376454) rotate(4.992081) translate(-281.626180, -271.376454) " points="345.516919 226.292312 223.04234 324.743877 217.735441 317.388404 345.516919 218.009031"></polygon>
                <polygon id="路径-462_1_" fill="#936246" transform="translate(279.876098, 256.883843) rotate(4.992081) translate(-279.876098, -256.883843) " points="344.518181 212.551545 219.442142 309.499422 215.234015 299.525492 344.518181 204.268264"></polygon>
                <polygon id="路径-463_1_" fill="#936246" transform="translate(182.137640, 257.018052) rotate(4.992081) translate(-182.137640, -257.018052) " points="144.930863 214.05347 211.272093 301.741269 219.344417 296.177424 151.365527 212.294835"></polygon>
                <path d="M184.02927,214.39782 L126.196274,208.299085 C117.146819,206.089544 112.622091,202.601935 112.622091,197.836257 C112.622091,196.317572 115.605472,192.687326 120.064547,192.602343 C126.430558,192.4897 145.96617,196.558522 178.671382,204.80881 L184.02927,214.39782 Z" id="路径-464_1_" fill="#270101" transform="translate(148.325680, 203.498944) rotate(4.992081) translate(-148.325680, -203.498944) "></path>
                <path d="M179.166141,208.30931 C139.689668,206.406372 118.751014,202.401869 116.350179,196.295803 C113.949344,190.189738 124.947061,188.205483 149.343331,190.343039 L169.552136,195.852895 L179.166141,208.30931 Z" id="路径-465_1_" fill="#6C3B2D" transform="translate(147.596836, 198.910476) rotate(4.992081) translate(-147.596836, -198.910476) "></path>
                <polygon id="路径-466_1_" fill="#936246" transform="translate(123.469171, 259.055622) rotate(4.992081) translate(-123.469171, -259.055622) " points="162.555059 227.449183 90.2380691 298.141509 84.3832843 293.887392 156.579299 219.969735"></polygon>
                <path d="M222.464948,206.663292 C236.340068,232.317301 244.571693,251.276699 247.159822,263.541486 C251.038017,281.937668 235.147316,345.772418 228.277742,356.040287 C240.793144,363.308778 248.191608,368.490036 250.473135,371.58406 C227.555225,371.877333 216.09527,372.022636 216.093271,372.020006 L217.730931,285.977829 C215.008829,277.158993 213.12422,272.400981 212.077104,271.703792 C210.50643,270.659009 172.524314,218.967738 171.561514,215.487461 C170.923646,213.172608 187.891458,210.231218 222.464948,206.663292 Z" id="路径-458_1_" fill="#ECA188" transform="translate(211.008658, 289.341649) rotate(4.992081) translate(-211.008658, -289.341649) "></path>
                <path d="M250.714102,148.451685 L286.063765,183.967313 C268.910659,200.969784 254.934893,207.724715 244.136468,204.232107 L225.450346,186.815722 L236.740003,207.764374 L177.885219,218.491147 C164.811266,203.059683 158.27429,186.813722 158.27429,169.753263 C158.27429,152.692804 189.08756,145.592278 250.714102,148.451685 Z" id="路径-457_1_" fill="#4A5396" transform="translate(222.169027, 183.163575) rotate(4.992081) translate(-222.169027, -183.163575) "></path>
                <path d="M254.115725,151.38882 L286.241725,189.84582 C267.674392,205.289154 253.164059,210.802487 242.710725,206.38582 L225.610725,187.41082 L235.033725,209.26382 L175.468725,214.82882 C163.788725,198.318154 158.689392,181.56482 160.170725,164.56882 C161.652059,147.57282 192.967059,143.179487 254.115725,151.38882 Z" id="路径-457_2_" fill="url(#linearGradient-3)"></path>
                <path d="M268.860642,127.342218 C262.486632,153.670086 233.434995,166.94933 181.705732,167.179949 C129.977136,167.397904 159.028773,154.11866 268.860642,127.342218 Z" id="路径-456_1_" fill="#FFFFFF" transform="translate(212.861301, 147.262403) rotate(4.992081) translate(-212.861301, -147.262403) "></path>
                <path d="M332.127725,72.7148202 L309.213725,56.5148202 C296.505725,68.8801535 283.852725,77.2821535 271.254725,81.7208202 C252.360725,88.3788202 152.465725,110.63882 135.699725,122.02082 C118.933725,133.40282 96.4537255,149.30582 96.5414679,174.39182 C96.5414679,186.925154 99.4750588,194.261154 105.341725,196.39982 C111.695725,183.25182 122.742725,173.885154 138.482725,168.29982 C187.384059,173.822487 225.680392,165.153154 253.371725,142.29182 C258.736392,141.158487 262.626392,141.254487 265.041725,142.57982 C275.441725,165.05982 298.891725,182.651487 335.391725,195.35482 L340.403725,187.99182 C313.063725,169.97782 300.487392,151.111154 302.674725,131.39182 C304.862059,111.672487 314.679725,92.1134869 332.127725,72.7148202 Z" id="路径-454_2_" fill="url(#linearGradient-4)"></path>
            </g>
            <g id="peacock" transform="translate(116.000000, 48.000000)">
                <path d="M178.895,89.285 C166.789,103.292 160.294,118.292 108.504,177.908 C153.585,138.991 173.587,127.132 178.895,89.285" id="Fill-1" fill="#1E5988"></path>
                <path d="M178.895,86.239 C173.368,95.373 173.288,155.057 126.902,174.068 C151.557,168 178.746,148.119 178.895,86.239" id="Fill-2" fill="#2A5E9C"></path>
                <g id="Group-6" transform="translate(0.000000, 73.369000)">
                    <mask id="mask-6" fill="white">
                        <use xlink:href="#path-5"></use>
                    </mask>
                    <g id="Clip-4"></g>
                    <path d="M175.449,14.133 C169.921,23.268 170.816,67.213 128.045,89.191 C151.061,79.367 175.449,68.331 175.449,14.133" id="Fill-3" fill="#1E638E" mask="url(#mask-6)"></path>
                    <path d="M164.458,0.053 C149.546,14.39 123.973,12.646 108.968,25.221 C111.711,25.275 115.816,26.016 115.816,26.016 C115.816,26.016 97.376,29.993 82.264,41.34 C85.541,40.453 87.688,42.648 87.688,42.648 C87.688,42.648 69.14,52.064 45.261,70.812 C48.159,71.726 53.151,70.968 53.151,70.968 C53.151,70.968 19.515,88.496 0,86.05 C17.916,91.208 41.063,92.181 62.811,77.167 C60.186,79.686 59.292,81.557 59.292,81.557 C59.292,81.557 80.926,80.954 89.868,62.596 C89.777,67.228 89.239,68.419 89.239,68.419 C89.239,68.419 107.424,61.635 113.419,44.766 C113.363,47.682 114.01,47.993 114.01,47.993 C114.01,47.993 130.731,44.114 132.738,29.345 C132.688,31.866 134.054,32.236 134.054,32.236 C134.054,32.236 160.883,20.227 164.458,0.053" id="Fill-5" fill="#198D6A" mask="url(#mask-6)"></path>
                </g>
                <path d="M110.119,109.776 C108.734,107.078 87.645,116.759 92.464,121.776 C97.286,126.789 112.433,114.283 110.119,109.776" id="Fill-7" fill="#75C3B0"></path>
                <path d="M110.184,109.671 C109.131,107.621 93.117,114.975 96.778,118.782 C100.438,122.59 111.942,113.092 110.184,109.671" id="Fill-8" fill="#F9D3AD"></path>
                <path d="M110.232,109.594 C109.42,108.015 97.087,113.68 99.906,116.613 C102.724,119.542 111.585,112.23 110.232,109.594" id="Fill-9" fill="#2A5E9C"></path>
                <path d="M89.28,124.556 C87.895,121.859 66.806,131.542 71.627,136.554 C76.447,141.568 91.594,129.065 89.28,124.556" id="Fill-10" fill="#75C3B0"></path>
                <path d="M89.345,124.451 C88.295,122.401 72.278,129.753 75.938,133.563 C79.601,137.37 91.103,127.872 89.345,124.451" id="Fill-11" fill="#F9D3AD"></path>
                <path d="M89.394,124.374 C88.582,122.796 76.248,128.459 79.067,131.391 C81.886,134.324 90.746,127.011 89.394,124.374" id="Fill-12" fill="#2A5E9C"></path>
                <path d="M69.173,139.293 C68.252,137.5 54.232,143.939 57.438,147.27 C60.642,150.605 70.711,142.292 69.173,139.293" id="Fill-13" fill="#75C3B0"></path>
                <path d="M69.217,139.224 C68.517,137.862 57.872,142.75 60.303,145.281 C62.736,147.811 70.384,141.5 69.217,139.224" id="Fill-14" fill="#F9D3AD"></path>
                <path d="M69.248,139.174 C68.707,138.125 60.511,141.89 62.385,143.839 C64.258,145.788 70.145,140.924 69.248,139.174" id="Fill-15" fill="#2A5E9C"></path>
                <path d="M133.081,96.799 C131.957,94.195 111.688,101.913 115.87,106.89 C120.052,111.864 134.959,101.144 133.081,96.799" id="Fill-16" fill="#75C3B0"></path>
                <path d="M133.146,96.705 C132.295,94.727 116.902,100.586 120.08,104.367 C123.254,108.144 134.575,100.005 133.146,96.705" id="Fill-17" fill="#F9D3AD"></path>
                <path d="M133.197,96.636 C132.54,95.112 120.686,99.627 123.132,102.536 C125.577,105.447 134.293,99.177 133.197,96.636" id="Fill-18" fill="#2A5E9C"></path>
                <path d="M149.727,85.243 C148.61,83.07 131.636,90.863 135.516,94.9 C139.396,98.937 151.586,88.87 149.727,85.243" id="Fill-19" fill="#75C3B0"></path>
                <path d="M149.779,85.159 C148.931,83.509 136.042,89.427 138.987,92.493 C141.934,95.557 151.192,87.914 149.779,85.159" id="Fill-20" fill="#F9D3AD"></path>
                <path d="M149.816,85.098 C149.162,83.827 139.237,88.384 141.506,90.746 C143.775,93.104 150.904,87.217 149.816,85.098" id="Fill-21" fill="#2A5E9C"></path>
                <path d="M68.747,145.503 C66.638,147.256 64.001,151.071 62.706,152.991 C65.189,151.838 73.342,150.226 81.695,143.584 C78.415,145.292 67.835,149.527 66.427,149.975 C66.453,148.658 68.383,146.525 68.747,145.503" id="Fill-22" fill="#1A8363"></path>
                <path d="M51.539,150.653 C50.782,149.256 39.204,152.639 40.462,155.468 C41.721,158.297 52.92,153.2 51.539,150.653" id="Fill-23" fill="#F9D3AD"></path>
                <path d="M51.584,150.553 C51.077,149.619 43.337,151.88 44.18,153.77 C45.021,155.664 52.506,152.253 51.584,150.553" id="Fill-24" fill="#2A5E9C"></path>
                <path d="M173.93,74.692 C159.195,89.108 136.059,93.756 123.319,108.623 C126.034,108.224 130.203,108.285 130.203,108.285 C130.203,108.285 112.667,115.231 99.622,128.904 C102.709,127.492 105.187,129.303 105.187,129.303 C105.187,129.303 88.436,141.635 67.955,164.046 C70.963,164.476 75.763,162.907 75.763,162.907 C75.763,162.907 45.458,185.715 25.809,186.503 C44.327,188.654 67.32,185.815 86.31,167.436 C84.134,170.351 83.558,172.344 83.558,172.344 C83.558,172.344 104.801,168.2 110.61,148.625 C111.279,153.208 110.943,154.472 110.943,154.472 C110.943,154.472 127.313,145.938 130.46,128.311 C130.883,131.198 132.03,133.416 132.03,133.416 C132.03,133.416 147.887,123.689 147.445,108.791 C147.808,111.285 149.216,111.428 149.216,111.428 C149.216,111.428 173.713,95.178 173.93,74.692" id="Fill-25" fill="#149A77"></path>
                <path d="M126.289,119.467 C124.48,117.032 105.266,130.043 110.843,134.199 C116.421,138.356 129.311,123.534 126.289,119.467" id="Fill-26" fill="#75C3B0"></path>
                <path d="M126.338,119.351 C124.963,117.503 110.371,127.383 114.606,130.538 C118.842,133.695 128.632,122.44 126.338,119.351" id="Fill-27" fill="#F9D3AD"></path>
                <path d="M126.371,119.269 C125.31,117.845 114.074,125.454 117.337,127.885 C120.597,130.317 128.14,121.648 126.371,119.269" id="Fill-28" fill="#2A5E9C"></path>
                <path d="M108.158,137.466 C106.35,135.032 87.134,148.042 92.712,152.198 C98.289,156.352 111.18,141.533 108.158,137.466" id="Fill-29" fill="#75C3B0"></path>
                <path d="M108.205,137.351 C106.833,135.501 92.239,145.383 96.475,148.54 C100.71,151.695 110.5,140.439 108.205,137.351" id="Fill-30" fill="#F9D3AD"></path>
                <path d="M108.24,137.267 C107.181,135.844 95.943,143.454 99.205,145.883 C102.467,148.315 110.006,139.646 108.24,137.267" id="Fill-31" fill="#2A5E9C"></path>
                <path d="M90.739,155.304 C89.538,153.685 76.765,162.333 80.473,165.097 C84.179,167.859 92.75,158.006 90.739,155.304" id="Fill-32" fill="#75C3B0"></path>
                <path d="M90.773,155.227 C89.859,153.998 80.16,160.566 82.973,162.663 C85.789,164.763 92.297,157.28 90.773,155.227" id="Fill-33" fill="#F9D3AD"></path>
                <path d="M90.794,155.17 C90.091,154.225 82.622,159.282 84.789,160.9 C86.957,162.514 91.968,156.752 90.794,155.17" id="Fill-34" fill="#2A5E9C"></path>
                <path d="M146.812,102.898 C145.275,100.515 126.547,111.452 131.49,115.677 C136.431,119.899 149.376,106.878 146.812,102.898" id="Fill-35" fill="#75C3B0"></path>
                <path d="M146.862,102.793 C145.697,100.985 131.473,109.291 135.228,112.498 C138.98,115.705 148.811,105.816 146.862,102.793" id="Fill-36" fill="#F9D3AD"></path>
                <path d="M146.899,102.719 C146.001,101.325 135.047,107.722 137.938,110.192 C140.83,112.661 148.399,105.046 146.899,102.719" id="Fill-37" fill="#2A5E9C"></path>
                <path d="M161.335,88.771 C159.878,86.811 144.413,97.282 148.903,100.626 C153.392,103.972 163.767,92.042 161.335,88.771" id="Fill-38" fill="#75C3B0"></path>
                <path d="M161.373,88.678 C160.267,87.189 148.524,95.142 151.931,97.681 C155.34,100.222 163.22,91.162 161.373,88.678" id="Fill-39" fill="#F9D3AD"></path>
                <path d="M161.4,88.611 C160.547,87.465 151.506,93.589 154.13,95.545 C156.753,97.501 162.821,90.523 161.4,88.611" id="Fill-40" fill="#2A5E9C"></path>
                <path d="M91.338,161.498 C89.546,163.575 87.572,167.769 86.608,169.874 C88.869,168.33 96.648,165.403 103.796,157.481 C100.844,159.705 91.1,165.617 89.785,166.291 C89.594,164.988 91.147,162.563 91.338,161.498" id="Fill-41" fill="#1A8363"></path>
                <path d="M75.21,169.402 C74.234,168.147 63.367,173.383 65.074,175.968 C66.778,178.551 76.99,171.685 75.21,169.402" id="Fill-42" fill="#F9D3AD"></path>
                <g id="Group-46" transform="translate(62.000000, 79.369000)">
                    <mask id="mask-8" fill="white">
                        <use xlink:href="#path-7"></use>
                    </mask>
                    <g id="Clip-44"></g>
                    <path d="M13.236,89.926 C12.583,89.087 5.319,92.588 6.46,94.315 C7.601,96.044 14.427,91.453 13.236,89.926" id="Fill-43" fill="#2A5E9C" mask="url(#mask-8)"></path>
                    <path d="M116.42,0.527 C105.343,15.777 85.198,23.512 75.987,38.863 C78.376,38.089 82.142,37.503 82.142,37.503 C82.142,37.503 67.395,46.453 57.729,60.772 C60.294,59.029 62.807,60.282 62.807,60.282 C62.807,60.282 49.907,71.36 34.874,94.699 C37.652,94.623 41.426,95.079 41.426,95.079 C41.426,95.079 17.596,120.28 0,124 C17.024,123.102 37.319,117.022 51.625,97.548 C50.112,100.51 49.896,102.395 49.896,102.395 C49.896,102.395 68.413,96.524 70.653,77.989 C71.903,84.308 71.85,82.091 71.85,82.091 C71.85,82.091 85.454,69.108 85.594,52.737 C86.417,55.274 87.918,59.228 87.918,59.228 C87.918,59.228 100.672,50.12 97.99,36.757 C98.7,38.952 101.174,39.893 101.174,39.893 C101.174,39.893 119.36,19.03 116.42,0.527" id="Fill-45" fill="#0FA27A" mask="url(#mask-8)"></path>
                </g>
                <path d="M142.326,127.554 C140.321,125.633 124.992,140.304 130.654,143.199 C136.319,146.092 145.673,130.758 142.326,127.554" id="Fill-47" fill="#75C3B0"></path>
                <path d="M142.351,127.442 C140.829,125.988 129.188,137.127 133.488,139.324 C137.789,141.522 144.892,129.876 142.351,127.442" id="Fill-48" fill="#F9D3AD"></path>
                <path d="M142.37,127.363 C141.197,126.239 132.231,134.823 135.543,136.513 C138.853,138.205 144.328,129.236 142.37,127.363" id="Fill-49" fill="#2A5E9C"></path>
                <path d="M128.735,146.555 C126.731,144.637 111.401,159.309 117.065,162.201 C122.728,165.092 132.083,149.758 128.735,146.555" id="Fill-50" fill="#75C3B0"></path>
                <path d="M128.76,146.444 C127.238,144.988 115.596,156.128 119.897,158.325 C124.2,160.521 131.301,148.875 128.76,146.444" id="Fill-51" fill="#F9D3AD"></path>
                <path d="M128.779,146.365 C127.606,145.243 118.64,153.821 121.951,155.513 C125.265,157.206 130.735,148.237 128.779,146.365" id="Fill-52" fill="#2A5E9C"></path>
                <path d="M115.764,165.302 C114.431,164.026 104.24,173.781 108.006,175.703 C111.771,177.625 117.988,167.43 115.764,165.302" id="Fill-53" fill="#75C3B0"></path>
                <path d="M115.782,165.229 C114.77,164.258 107.029,171.667 109.888,173.127 C112.747,174.587 117.47,166.845 115.782,165.229" id="Fill-54" fill="#F9D3AD"></path>
                <path d="M115.793,165.173 C115.013,164.428 109.053,170.131 111.256,171.257 C113.457,172.382 117.093,166.419 115.793,165.173" id="Fill-55" fill="#2A5E9C"></path>
                <path d="M158.291,109.475 C156.541,107.563 141.332,120.291 146.433,123.341 C151.534,126.39 161.21,112.67 158.291,109.475" id="Fill-56" fill="#75C3B0"></path>
                <path d="M158.317,109.375 C156.993,107.92 145.441,117.586 149.318,119.902 C153.19,122.218 160.541,111.799 158.317,109.375" id="Fill-57" fill="#F9D3AD"></path>
                <path d="M158.343,109.298 C157.318,108.181 148.423,115.624 151.407,117.407 C154.393,119.192 160.049,111.167 158.343,109.298" id="Fill-58" fill="#2A5E9C"></path>
                <path d="M169.22,94.514 C167.608,92.972 155.269,104.78 159.828,107.107 C164.387,109.435 171.914,97.093 169.22,94.514" id="Fill-59" fill="#75C3B0"></path>
                <path d="M169.242,94.426 C168.015,93.255 158.646,102.219 162.107,103.99 C165.572,105.754 171.289,96.383 169.242,94.426" id="Fill-60" fill="#F9D3AD"></path>
                <path d="M169.253,94.361 C168.312,93.459 161.097,100.366 163.763,101.726 C166.427,103.087 170.83,95.868 169.253,94.361" id="Fill-61" fill="#2A5E9C"></path>
                <path d="M134.505,146.682 C133.414,148.819 133.899,153.364 135.199,156.459 C136.801,154.951 144.382,144.415 144.287,137.389 C143.196,141.773 137.32,152.2 135.842,152.677 C135.488,151.582 134.291,148.562 134.505,146.682" id="Fill-62" fill="#1A8363"></path>
                <path d="M148.964,126.494 C148.847,128.509 149.515,131.926 149.997,133.416 C151.394,132.466 158.024,125.185 158.22,119.262 C155.552,123.754 151.738,129.738 150.692,130.077 C150.198,128.55 149.528,127.824 148.964,126.494" id="Fill-63" fill="#1A8363"></path>
                <path d="M117.251,170.794 C115.954,172.941 114.814,177.024 114.269,179.072 C116.07,177.333 122.635,173.5 127.866,165.266 C125.544,167.722 117.667,174.544 116.583,175.354 C116.212,174.207 117.244,171.786 117.251,170.794" id="Fill-64" fill="#1A8363"></path>
                <path d="M103.921,180.388 C102.848,179.407 93.853,185.792 95.788,187.858 C97.72,189.926 105.875,182.175 103.921,180.388" id="Fill-65" fill="#F9D3AD"></path>
                <path d="M103.927,180.287 C103.212,179.633 97.196,183.9 98.492,185.283 C99.786,186.667 105.235,181.485 103.927,180.287" id="Fill-66" fill="#2A5E9C"></path>
                <path d="M224.132,11.277 C224.132,11.277 223.577,10.863 222.746,10.24 C221.915,9.629 220.81,8.813 219.646,8.085 C219.072,7.71 218.482,7.361 217.91,7.07 C217.623,6.927 217.362,6.747 217.083,6.651 C216.812,6.54 216.555,6.434 216.317,6.336 C215.85,6.103 215.415,6.082 215.124,6.002 C214.829,5.942 214.66,5.906 214.66,5.906 C214.66,5.906 214.83,5.929 215.127,5.968 C215.423,6.025 215.872,6.018 216.357,6.217 C216.604,6.298 216.873,6.387 217.154,6.479 C217.446,6.56 217.718,6.718 218.019,6.842 C218.621,7.096 219.242,7.404 219.848,7.742 C221.076,8.39 222.25,9.131 223.129,9.685 C223.997,10.241 224.575,10.612 224.575,10.612 L224.132,11.277" id="Fill-67" fill="#131514"></path>
                <path d="M224.096,11.697 C224.096,11.697 223.981,11.623 223.784,11.495 C223.592,11.377 223.294,11.2 222.938,11.004 C222.223,10.606 221.246,10.104 220.241,9.676 C219.235,9.248 218.194,8.886 217.383,8.758 C216.978,8.696 216.635,8.691 216.398,8.711 C216.162,8.758 216.025,8.785 216.025,8.785 C216.025,8.785 216.16,8.746 216.393,8.678 C216.63,8.636 216.98,8.607 217.398,8.635 C218.236,8.688 219.322,8.96 220.381,9.301 C221.439,9.643 222.474,10.06 223.238,10.399 C223.624,10.567 223.935,10.716 224.167,10.833 C224.384,10.947 224.508,11.012 224.508,11.012 L224.096,11.697" id="Fill-68" fill="#131514"></path>
                <path d="M224.562,11.014 C224.559,11.004 224.444,10.922 224.223,10.674 C223.993,10.429 223.741,10.123 223.413,9.731 C222.769,8.959 221.921,7.929 221.026,6.943 C220.13,5.959 219.183,5.015 218.375,4.432 C217.973,4.14 217.605,3.944 217.339,3.828 C217.058,3.741 216.9,3.693 216.9,3.693 C216.9,3.693 217.064,3.73 217.349,3.795 C217.627,3.892 218.013,4.063 218.444,4.328 C219.309,4.858 220.333,5.741 221.311,6.664 C222.287,7.588 223.217,8.561 223.913,9.28 C224.257,9.632 224.564,9.948 224.747,10.117 C224.925,10.295 225.088,10.405 225.088,10.405 L224.562,11.014" id="Fill-69" fill="#131514"></path>
                <path d="M224.638,10.321 C224.637,10.293 224.547,10.252 224.378,9.901 C224.208,9.567 224.105,9.223 223.943,8.752 C223.644,7.842 223.269,6.635 222.744,5.492 C222.469,4.929 222.184,4.363 221.835,3.891 C221.676,3.641 221.488,3.431 221.311,3.227 C221.145,3.008 220.934,2.863 220.765,2.697 C220.598,2.527 220.397,2.437 220.243,2.32 C220.087,2.203 219.931,2.141 219.804,2.087 C219.549,1.975 219.403,1.911 219.403,1.911 C219.403,1.911 219.553,1.963 219.818,2.056 C219.95,2.099 220.113,2.151 220.279,2.256 C220.446,2.36 220.658,2.44 220.842,2.598 C221.027,2.753 221.258,2.889 221.443,3.096 C221.642,3.292 221.854,3.495 222.037,3.738 C222.434,4.198 222.772,4.753 223.099,5.31 C223.732,6.437 224.208,7.64 224.577,8.517 C224.755,8.939 224.93,9.341 225.028,9.498 C225.087,9.66 225.277,9.817 225.25,9.807 L224.638,10.321" id="Fill-70" fill="#131514"></path>
                <path d="M224.759,10.417 C224.768,10.395 224.712,10.316 224.708,9.947 C224.696,9.589 224.744,9.238 224.787,8.759 C224.884,7.834 225.036,6.613 225.011,5.39 C224.993,4.781 224.956,4.167 224.833,3.609 C224.731,3.044 224.551,2.54 224.363,2.121 C224.274,1.908 224.147,1.738 224.057,1.572 C223.971,1.405 223.857,1.286 223.773,1.18 C223.6,0.971 223.5,0.853 223.5,0.853 C223.5,0.853 223.61,0.964 223.798,1.159 C223.893,1.256 224.015,1.369 224.118,1.531 C224.221,1.688 224.365,1.854 224.472,2.063 C224.701,2.473 224.927,2.979 225.081,3.551 C225.25,4.117 225.339,4.742 225.411,5.366 C225.537,6.619 225.482,7.878 225.461,8.804 C225.45,9.251 225.445,9.675 225.468,9.858 C225.46,10.034 225.552,10.248 225.537,10.228 L224.759,10.417" id="Fill-71" fill="#131514"></path>
                <path d="M219.942,1.911 C219.942,2.271 219.651,2.561 219.292,2.561 C218.933,2.561 218.642,2.271 218.642,1.911 C218.642,1.551 218.933,1.261 219.292,1.261 C219.651,1.261 219.942,1.551 219.942,1.911" id="Fill-72" fill="#131514"></path>
                <path d="M224.079,0.65 C224.079,1.01 223.788,1.3 223.429,1.3 C223.07,1.3 222.779,1.01 222.779,0.65 C222.779,0.291 223.07,-1.42108547e-14 223.429,-1.42108547e-14 C223.788,-1.42108547e-14 224.079,0.291 224.079,0.65" id="Fill-73" fill="#131514"></path>
                <path d="M217.303,3.693 C217.303,4.053 217.011,4.343 216.653,4.343 C216.293,4.343 216.002,4.053 216.002,3.693 C216.002,3.334 216.293,3.042 216.653,3.042 C217.011,3.042 217.303,3.334 217.303,3.693" id="Fill-74" fill="#131514"></path>
                <path d="M215.31,5.906 C215.31,6.265 215.018,6.556 214.66,6.556 C214.3,6.556 214.009,6.265 214.009,5.906 C214.009,5.547 214.3,5.256 214.66,5.256 C215.018,5.256 215.31,5.547 215.31,5.906" id="Fill-75" fill="#131514"></path>
                <path d="M216.653,8.661 C216.653,9.019 216.362,9.31 216.002,9.31 C215.643,9.31 215.352,9.019 215.352,8.661 C215.352,8.301 215.643,8.01 216.002,8.01 C216.362,8.01 216.653,8.301 216.653,8.661" id="Fill-76" fill="#131514"></path>
                <path d="M190.959,99.639 L181.76,98.033 C181.76,98.033 179.893,106.504 178.25,111.102 C178.692,117.569 188.708,137.472 188.708,143.552 C190.625,145.468 202.234,145.147 207.317,145.147 C207.774,143.246 202.792,142.23 197.711,142.23 C201.462,141.503 203.363,140.901 206.872,142.23 C207.157,138.947 194.635,140.887 192.336,140.282 C189.931,135.669 182.439,119.742 183.332,111.947 C184.183,108.39 189.266,103.873 190.959,99.639" id="Fill-77" fill="#817350"></path>
                <g id="Group-81" transform="translate(146.000000, 9.369000)">
                    <path d="M54.713,85.826 L46.121,84.326 C46.121,84.326 44.377,92.237 42.843,96.528 C43.255,102.569 52.609,121.155 52.609,126.832 C54.399,128.623 65.241,128.323 69.986,128.323 C70.413,126.548 65.763,125.598 61.017,125.598 C64.52,124.921 66.294,124.357 69.571,125.598 C69.837,122.532 58.144,124.343 55.998,123.778 C53.75,119.473 46.753,104.598 47.588,97.318 C48.382,93.998 53.128,89.781 54.713,85.826" id="Fill-78" fill="#746648"></path>
                    <path d="M88.654,7.488 C88.654,3.485 85.738,-0.553 79.674,0.591 C70.286,2.363 74.371,13.023 76.816,16.81 C80.36,22.3 87.795,39.571 69.609,42.546 C51.422,45.519 48.762,39.089 32.406,49.155 C16.048,59.221 17.502,68.724 0.171,72.056 C15.076,74.964 30.378,82.236 33.923,88.869 C35.21,90.156 34.006,91.729 34.236,93.217 C35.754,91.7 38.721,92.729 38.721,92.729 C38.721,92.729 38.57,94.539 37.411,95.418 C39.528,96.445 42.029,94.927 42.029,94.927 C42.029,94.927 42.729,95.423 42.021,96.706 C45.429,96.008 48.392,94.644 50.393,92.185 C57.772,90.467 72.1,80.041 80.475,64.049 C86.937,57.587 98.708,49.408 93.904,35.34 C89.1,21.27 83.449,15.665 83.449,13.149 C83.449,10.633 88.654,10.576 88.654,7.488" id="Fill-80" fill="#2A5E9C"></path>
                </g>
                <path d="M234.647,16.492 C234.647,12.482 226.533,10.72 223.5,14.026 C219.053,18.873 222.915,25.177 226.389,27.966 C229.863,30.753 226.989,22.647 228.576,20.203 C230.164,17.757 234.647,19.331 234.647,16.492" id="Fill-82" fill="#07121F"></path>
                <path d="M222.627,15.157 C220.632,18.487 226.023,25.7 228.696,20.036 C229.754,16.842 222.627,17.807 222.627,15.157" id="Fill-83" fill="#D6D6A9"></path>
                <path d="M232.672,18.431 C234.516,17.228 231.599,13.153 226.824,12.398 C230.805,14.418 230.996,19.523 232.672,18.431" id="Fill-84" fill="#D6D6A9"></path>
                <path d="M233.994,13.841 C234.2,14.827 232.799,15.598 232.799,15.598 C232.799,15.598 233.393,17.014 234.173,18.123 C236.349,17.861 238.895,17.886 240.919,18.169 C240.19,16.024 236.139,13.841 233.994,13.841" id="Fill-85" fill="#817350"></path>
                <path d="M232.799,15.598 C232.799,15.598 233.177,17.552 234.056,18.431 C236.233,18.169 238.848,18.052 240.919,18.169 C239.356,16.607 232.799,15.598 232.799,15.598" id="Fill-86" fill="#6D6045"></path>
                <path d="M229.023,15.766 C228.777,16.495 227.987,16.886 227.257,16.638 C226.531,16.394 226.138,15.603 226.383,14.874 C226.628,14.145 227.419,13.754 228.151,14 C228.875,14.246 229.268,15.037 229.023,15.766" id="Fill-87" fill="#3F2A1C"></path>
                <g id="Group-91" transform="translate(227.000000, 14.369000)">
                    <path d="M1.758,0.857 C1.689,1.053 1.477,1.159 1.284,1.093 C1.085,1.027 0.982,0.814 1.047,0.618 C1.114,0.422 1.327,0.316 1.52,0.383 C1.718,0.449 1.824,0.662 1.758,0.857" id="Fill-88" fill="#FFFFFE"></path>
                    <path d="M10.872,30.34 C15.218,35.944 10.683,49.266 3.364,47.435 C5.307,45.147 10.872,42.462 10.872,30.34" id="Fill-90" fill="#1E5988"></path>
                </g>
                <path d="M222.816,63.325 C224.948,60.461 219.002,50.45 204.009,50.45 C189.017,50.45 176.565,56.619 162.901,67.983 C155.042,74.512 161.33,72.215 167.375,69.555 C163.99,72.94 150.69,85.272 162.296,80.437 C160.725,83.217 163.99,83.459 170.771,79.118 C168.352,81.536 170.88,85.272 180.434,77.052 C179.103,79.831 179.103,81.767 190.468,75.721 C187.871,78.32 188.896,79.59 198.691,75.962 C204.372,73.786 217.814,70.038 222.816,63.325" id="Fill-92" fill="#AFD3DE"></path>
                <path d="M170.503,69.954 C168.444,72.013 165.67,76.53 172.646,73.669 C169.836,76.48 175.12,77.23 180.967,72.297 C180.28,75.157 184.999,74.785 191.347,69.595 C187.873,71.226 182.21,71.297 183.583,68.437 C180.624,71.397 175.806,75.514 174.661,70.71 C170.63,73.113 169.129,73.042 170.503,69.954" id="Fill-93" fill="#181712"></path>
                <path d="M207.218,63.718 C206.904,63.273 203.486,64.749 204.6,65.477 C205.716,66.206 208.333,65.306 207.218,63.718" id="Fill-94" fill="#181712"></path>
                <path d="M199.99,62.67 C199.676,62.223 196.258,63.699 197.375,64.428 C198.489,65.158 201.105,64.257 199.99,62.67" id="Fill-95" fill="#181712"></path>
                <path d="M201.773,59.463 C201.458,59.017 198.042,60.493 199.157,61.221 C200.272,61.951 202.888,61.05 201.773,59.463" id="Fill-96" fill="#181712"></path>
                <path d="M207.251,58.832 C206.975,58.441 203.985,59.733 204.959,60.372 C205.936,61.011 208.228,60.222 207.251,58.832" id="Fill-97" fill="#181712"></path>
                <path d="M193.554,61.55 C193.28,61.159 190.289,62.451 191.264,63.089 C192.242,63.727 194.531,62.939 193.554,61.55" id="Fill-98" fill="#181712"></path>
                <path d="M178.502,64.889 C178.227,64.498 175.235,65.789 176.211,66.427 C177.189,67.066 179.48,66.277 178.502,64.889" id="Fill-99" fill="#181712"></path>
                <path d="M179.863,60.993 C179.588,60.602 176.596,61.893 177.574,62.532 C178.55,63.17 180.84,62.381 179.863,60.993" id="Fill-100" fill="#181712"></path>
                <path d="M185.796,62.073 C185.522,61.681 182.53,62.973 183.505,63.611 C184.483,64.249 186.773,63.462 185.796,62.073" id="Fill-101" fill="#181712"></path>
                <path d="M186.622,57.617 C186.345,57.226 183.354,58.518 184.331,59.156 C185.306,59.793 187.597,59.006 186.622,57.617" id="Fill-102" fill="#181712"></path>
                <path d="M190.612,58.292 C190.336,57.9 187.344,59.192 188.321,59.831 C189.298,60.469 191.588,59.681 190.612,58.292" id="Fill-103" fill="#181712"></path>
                <path d="M197.85,54.922 C197.575,54.531 194.583,55.823 195.557,56.461 C196.536,57.099 198.826,56.312 197.85,54.922" id="Fill-104" fill="#181712"></path>
                <path d="M195.682,71.319 C195.409,70.927 192.417,72.219 193.392,72.858 C194.369,73.497 196.661,72.709 195.682,71.319" id="Fill-105" fill="#181712"></path>
                <path d="M172.082,63.97 C171.806,63.579 168.816,64.871 169.791,65.509 C170.768,66.147 173.058,65.359 172.082,63.97" id="Fill-106" fill="#181712"></path>
                <path d="M208.613,54.361 C208.337,53.969 205.346,55.261 206.322,55.899 C207.298,56.538 209.589,55.75 208.613,54.361" id="Fill-107" fill="#181712"></path>
                <path d="M214.208,59.343 C213.689,58.488 210.627,60.523 211.378,61.273 C212.127,62.025 214.937,60.545 214.208,59.343" id="Fill-108" fill="#181712"></path>
                <path d="M212.429,63.722 C211.908,62.865 208.848,64.901 209.598,65.651 C210.349,66.402 213.159,64.922 212.429,63.722" id="Fill-109" fill="#181712"></path>
                <path d="M204.259,68.643 C203.74,67.788 200.677,69.823 201.428,70.573 C202.178,71.325 204.988,69.845 204.259,68.643" id="Fill-110" fill="#181712"></path>
                <path d="M208.932,85.699 C206.558,86.459 202.071,94.912 189.167,94.912 C195.544,99.754 198.771,100.514 208.932,85.699" id="Fill-111" fill="#1E5988"></path>
            </g>
        </g>
    </g>
</svg>