<?xml version="1.0" encoding="UTF-8"?>
<svg width="241px" height="204px" viewBox="0 0 241 204" version="1.1" xmlns="http://www.w3.org/2000/svg" xmlns:xlink="http://www.w3.org/1999/xlink">
    <!-- Generator: Sketch 59 (86127) - https://sketch.com -->
    <title>peackock</title>
    <desc>Created with Sketch.</desc>
    <defs>
        <polygon id="path-1" points="0.06 0.053 175.449 0.053 175.449 89.4759896 0.06 89.4759896"></polygon>
        <polygon id="path-3" points="0 0.527 116.741586 0.527 116.741586 123.94 0 123.94"></polygon>
    </defs>
    <g id="Page-1" stroke="none" stroke-width="1" fill="none" fill-rule="evenodd">
        <g id="iStock-946838786" transform="translate(-1.000000, 0.000000)">
            <g id="peackock" transform="translate(121.000000, 102.631000) scale(-1, 1) translate(-121.000000, -102.631000) translate(0.000000, 0.631000)">
                <path d="M178.895,89.285 C166.789,103.292 160.294,118.292 108.504,177.908 C153.585,138.991 173.587,127.132 178.895,89.285" id="Fill-1" fill="#1E5988"></path>
                <path d="M178.895,86.239 C173.368,95.373 173.288,155.057 126.902,174.068 C151.557,168 178.746,148.119 178.895,86.239" id="Fill-2" fill="#2A5E9C"></path>
                <g id="Group-6" transform="translate(0.000000, 73.369000)">
                    <mask id="mask-2" fill="white">
                        <use xlink:href="#path-1"></use>
                    </mask>
                    <g id="Clip-4"></g>
                    <path d="M175.449,14.133 C169.921,23.268 170.816,67.213 128.045,89.191 C151.061,79.367 175.449,68.331 175.449,14.133" id="Fill-3" fill="#1E638E" mask="url(#mask-2)"></path>
                    <path d="M164.458,0.053 C149.546,14.39 123.973,12.646 108.968,25.221 C111.711,25.275 115.816,26.016 115.816,26.016 C115.816,26.016 97.376,29.993 82.264,41.34 C85.541,40.453 87.688,42.648 87.688,42.648 C87.688,42.648 69.14,52.064 45.261,70.812 C48.159,71.726 53.151,70.968 53.151,70.968 C53.151,70.968 19.515,88.496 0,86.05 C17.916,91.208 41.063,92.181 62.811,77.167 C60.186,79.686 59.292,81.557 59.292,81.557 C59.292,81.557 80.926,80.954 89.868,62.596 C89.777,67.228 89.239,68.419 89.239,68.419 C89.239,68.419 107.424,61.635 113.419,44.766 C113.363,47.682 114.01,47.993 114.01,47.993 C114.01,47.993 130.731,44.114 132.738,29.345 C132.688,31.866 134.054,32.236 134.054,32.236 C134.054,32.236 160.883,20.227 164.458,0.053" id="Fill-5" fill="#198D6A" mask="url(#mask-2)"></path>
                </g>
                <path d="M110.119,109.776 C108.734,107.078 87.645,116.759 92.464,121.776 C97.286,126.789 112.433,114.283 110.119,109.776" id="Fill-7" fill="#75C3B0"></path>
                <path d="M110.184,109.671 C109.131,107.621 93.117,114.975 96.778,118.782 C100.438,122.59 111.942,113.092 110.184,109.671" id="Fill-8" fill="#F9D3AD"></path>
                <path d="M110.232,109.594 C109.42,108.015 97.087,113.68 99.906,116.613 C102.724,119.542 111.585,112.23 110.232,109.594" id="Fill-9" fill="#2A5E9C"></path>
                <path d="M89.28,124.556 C87.895,121.859 66.806,131.542 71.627,136.554 C76.447,141.568 91.594,129.065 89.28,124.556" id="Fill-10" fill="#75C3B0"></path>
                <path d="M89.345,124.451 C88.295,122.401 72.278,129.753 75.938,133.563 C79.601,137.37 91.103,127.872 89.345,124.451" id="Fill-11" fill="#F9D3AD"></path>
                <path d="M89.394,124.374 C88.582,122.796 76.248,128.459 79.067,131.391 C81.886,134.324 90.746,127.011 89.394,124.374" id="Fill-12" fill="#2A5E9C"></path>
                <path d="M69.173,139.293 C68.252,137.5 54.232,143.939 57.438,147.27 C60.642,150.605 70.711,142.292 69.173,139.293" id="Fill-13" fill="#75C3B0"></path>
                <path d="M69.217,139.224 C68.517,137.862 57.872,142.75 60.303,145.281 C62.736,147.811 70.384,141.5 69.217,139.224" id="Fill-14" fill="#F9D3AD"></path>
                <path d="M69.248,139.174 C68.707,138.125 60.511,141.89 62.385,143.839 C64.258,145.788 70.145,140.924 69.248,139.174" id="Fill-15" fill="#2A5E9C"></path>
                <path d="M133.081,96.799 C131.957,94.195 111.688,101.913 115.87,106.89 C120.052,111.864 134.959,101.144 133.081,96.799" id="Fill-16" fill="#75C3B0"></path>
                <path d="M133.146,96.705 C132.295,94.727 116.902,100.586 120.08,104.367 C123.254,108.144 134.575,100.005 133.146,96.705" id="Fill-17" fill="#F9D3AD"></path>
                <path d="M133.197,96.636 C132.54,95.112 120.686,99.627 123.132,102.536 C125.577,105.447 134.293,99.177 133.197,96.636" id="Fill-18" fill="#2A5E9C"></path>
                <path d="M149.727,85.243 C148.61,83.07 131.636,90.863 135.516,94.9 C139.396,98.937 151.586,88.87 149.727,85.243" id="Fill-19" fill="#75C3B0"></path>
                <path d="M149.779,85.159 C148.931,83.509 136.042,89.427 138.987,92.493 C141.934,95.557 151.192,87.914 149.779,85.159" id="Fill-20" fill="#F9D3AD"></path>
                <path d="M149.816,85.098 C149.162,83.827 139.237,88.384 141.506,90.746 C143.775,93.104 150.904,87.217 149.816,85.098" id="Fill-21" fill="#2A5E9C"></path>
                <path d="M68.747,145.503 C66.638,147.256 64.001,151.071 62.706,152.991 C65.189,151.838 73.342,150.226 81.695,143.584 C78.415,145.292 67.835,149.527 66.427,149.975 C66.453,148.658 68.383,146.525 68.747,145.503" id="Fill-22" fill="#1A8363"></path>
                <path d="M51.539,150.653 C50.782,149.256 39.204,152.639 40.462,155.468 C41.721,158.297 52.92,153.2 51.539,150.653" id="Fill-23" fill="#F9D3AD"></path>
                <path d="M51.584,150.553 C51.077,149.619 43.337,151.88 44.18,153.77 C45.021,155.664 52.506,152.253 51.584,150.553" id="Fill-24" fill="#2A5E9C"></path>
                <path d="M173.93,74.692 C159.195,89.108 136.059,93.756 123.319,108.623 C126.034,108.224 130.203,108.285 130.203,108.285 C130.203,108.285 112.667,115.231 99.622,128.904 C102.709,127.492 105.187,129.303 105.187,129.303 C105.187,129.303 88.436,141.635 67.955,164.046 C70.963,164.476 75.763,162.907 75.763,162.907 C75.763,162.907 45.458,185.715 25.809,186.503 C44.327,188.654 67.32,185.815 86.31,167.436 C84.134,170.351 83.558,172.344 83.558,172.344 C83.558,172.344 104.801,168.2 110.61,148.625 C111.279,153.208 110.943,154.472 110.943,154.472 C110.943,154.472 127.313,145.938 130.46,128.311 C130.883,131.198 132.03,133.416 132.03,133.416 C132.03,133.416 147.887,123.689 147.445,108.791 C147.808,111.285 149.216,111.428 149.216,111.428 C149.216,111.428 173.713,95.178 173.93,74.692" id="Fill-25" fill="#149A77"></path>
                <path d="M126.289,119.467 C124.48,117.032 105.266,130.043 110.843,134.199 C116.421,138.356 129.311,123.534 126.289,119.467" id="Fill-26" fill="#75C3B0"></path>
                <path d="M126.338,119.351 C124.963,117.503 110.371,127.383 114.606,130.538 C118.842,133.695 128.632,122.44 126.338,119.351" id="Fill-27" fill="#F9D3AD"></path>
                <path d="M126.371,119.269 C125.31,117.845 114.074,125.454 117.337,127.885 C120.597,130.317 128.14,121.648 126.371,119.269" id="Fill-28" fill="#2A5E9C"></path>
                <path d="M108.158,137.466 C106.35,135.032 87.134,148.042 92.712,152.198 C98.289,156.352 111.18,141.533 108.158,137.466" id="Fill-29" fill="#75C3B0"></path>
                <path d="M108.205,137.351 C106.833,135.501 92.239,145.383 96.475,148.54 C100.71,151.695 110.5,140.439 108.205,137.351" id="Fill-30" fill="#F9D3AD"></path>
                <path d="M108.24,137.267 C107.181,135.844 95.943,143.454 99.205,145.883 C102.467,148.315 110.006,139.646 108.24,137.267" id="Fill-31" fill="#2A5E9C"></path>
                <path d="M90.739,155.304 C89.538,153.685 76.765,162.333 80.473,165.097 C84.179,167.859 92.75,158.006 90.739,155.304" id="Fill-32" fill="#75C3B0"></path>
                <path d="M90.773,155.227 C89.859,153.998 80.16,160.566 82.973,162.663 C85.789,164.763 92.297,157.28 90.773,155.227" id="Fill-33" fill="#F9D3AD"></path>
                <path d="M90.794,155.17 C90.091,154.225 82.622,159.282 84.789,160.9 C86.957,162.514 91.968,156.752 90.794,155.17" id="Fill-34" fill="#2A5E9C"></path>
                <path d="M146.812,102.898 C145.275,100.515 126.547,111.452 131.49,115.677 C136.431,119.899 149.376,106.878 146.812,102.898" id="Fill-35" fill="#75C3B0"></path>
                <path d="M146.862,102.793 C145.697,100.985 131.473,109.291 135.228,112.498 C138.98,115.705 148.811,105.816 146.862,102.793" id="Fill-36" fill="#F9D3AD"></path>
                <path d="M146.899,102.719 C146.001,101.325 135.047,107.722 137.938,110.192 C140.83,112.661 148.399,105.046 146.899,102.719" id="Fill-37" fill="#2A5E9C"></path>
                <path d="M161.335,88.771 C159.878,86.811 144.413,97.282 148.903,100.626 C153.392,103.972 163.767,92.042 161.335,88.771" id="Fill-38" fill="#75C3B0"></path>
                <path d="M161.373,88.678 C160.267,87.189 148.524,95.142 151.931,97.681 C155.34,100.222 163.22,91.162 161.373,88.678" id="Fill-39" fill="#F9D3AD"></path>
                <path d="M161.4,88.611 C160.547,87.465 151.506,93.589 154.13,95.545 C156.753,97.501 162.821,90.523 161.4,88.611" id="Fill-40" fill="#2A5E9C"></path>
                <path d="M91.338,161.498 C89.546,163.575 87.572,167.769 86.608,169.874 C88.869,168.33 96.648,165.403 103.796,157.481 C100.844,159.705 91.1,165.617 89.785,166.291 C89.594,164.988 91.147,162.563 91.338,161.498" id="Fill-41" fill="#1A8363"></path>
                <path d="M75.21,169.402 C74.234,168.147 63.367,173.383 65.074,175.968 C66.778,178.551 76.99,171.685 75.21,169.402" id="Fill-42" fill="#F9D3AD"></path>
                <g id="Group-46" transform="translate(62.000000, 79.369000)">
                    <mask id="mask-4" fill="white">
                        <use xlink:href="#path-3"></use>
                    </mask>
                    <g id="Clip-44"></g>
                    <path d="M13.236,89.926 C12.583,89.087 5.319,92.588 6.46,94.315 C7.601,96.044 14.427,91.453 13.236,89.926" id="Fill-43" fill="#2A5E9C" mask="url(#mask-4)"></path>
                    <path d="M116.42,0.527 C105.343,15.777 85.198,23.512 75.987,38.863 C78.376,38.089 82.142,37.503 82.142,37.503 C82.142,37.503 67.395,46.453 57.729,60.772 C60.294,59.029 62.807,60.282 62.807,60.282 C62.807,60.282 49.907,71.36 34.874,94.699 C37.652,94.623 41.426,95.079 41.426,95.079 C41.426,95.079 17.596,120.28 0,124 C17.024,123.102 37.319,117.022 51.625,97.548 C50.112,100.51 49.896,102.395 49.896,102.395 C49.896,102.395 68.413,96.524 70.653,77.989 C71.903,84.308 71.85,82.091 71.85,82.091 C71.85,82.091 85.454,69.108 85.594,52.737 C86.417,55.274 87.918,59.228 87.918,59.228 C87.918,59.228 100.672,50.12 97.99,36.757 C98.7,38.952 101.174,39.893 101.174,39.893 C101.174,39.893 119.36,19.03 116.42,0.527" id="Fill-45" fill="#0FA27A" mask="url(#mask-4)"></path>
                </g>
                <path d="M142.326,127.554 C140.321,125.633 124.992,140.304 130.654,143.199 C136.319,146.092 145.673,130.758 142.326,127.554" id="Fill-47" fill="#75C3B0"></path>
                <path d="M142.351,127.442 C140.829,125.988 129.188,137.127 133.488,139.324 C137.789,141.522 144.892,129.876 142.351,127.442" id="Fill-48" fill="#F9D3AD"></path>
                <path d="M142.37,127.363 C141.197,126.239 132.231,134.823 135.543,136.513 C138.853,138.205 144.328,129.236 142.37,127.363" id="Fill-49" fill="#2A5E9C"></path>
                <path d="M128.735,146.555 C126.731,144.637 111.401,159.309 117.065,162.201 C122.728,165.092 132.083,149.758 128.735,146.555" id="Fill-50" fill="#75C3B0"></path>
                <path d="M128.76,146.444 C127.238,144.988 115.596,156.128 119.897,158.325 C124.2,160.521 131.301,148.875 128.76,146.444" id="Fill-51" fill="#F9D3AD"></path>
                <path d="M128.779,146.365 C127.606,145.243 118.64,153.821 121.951,155.513 C125.265,157.206 130.735,148.237 128.779,146.365" id="Fill-52" fill="#2A5E9C"></path>
                <path d="M115.764,165.302 C114.431,164.026 104.24,173.781 108.006,175.703 C111.771,177.625 117.988,167.43 115.764,165.302" id="Fill-53" fill="#75C3B0"></path>
                <path d="M115.782,165.229 C114.77,164.258 107.029,171.667 109.888,173.127 C112.747,174.587 117.47,166.845 115.782,165.229" id="Fill-54" fill="#F9D3AD"></path>
                <path d="M115.793,165.173 C115.013,164.428 109.053,170.131 111.256,171.257 C113.457,172.382 117.093,166.419 115.793,165.173" id="Fill-55" fill="#2A5E9C"></path>
                <path d="M158.291,109.475 C156.541,107.563 141.332,120.291 146.433,123.341 C151.534,126.39 161.21,112.67 158.291,109.475" id="Fill-56" fill="#75C3B0"></path>
                <path d="M158.317,109.375 C156.993,107.92 145.441,117.586 149.318,119.902 C153.19,122.218 160.541,111.799 158.317,109.375" id="Fill-57" fill="#F9D3AD"></path>
                <path d="M158.343,109.298 C157.318,108.181 148.423,115.624 151.407,117.407 C154.393,119.192 160.049,111.167 158.343,109.298" id="Fill-58" fill="#2A5E9C"></path>
                <path d="M169.22,94.514 C167.608,92.972 155.269,104.78 159.828,107.107 C164.387,109.435 171.914,97.093 169.22,94.514" id="Fill-59" fill="#75C3B0"></path>
                <path d="M169.242,94.426 C168.015,93.255 158.646,102.219 162.107,103.99 C165.572,105.754 171.289,96.383 169.242,94.426" id="Fill-60" fill="#F9D3AD"></path>
                <path d="M169.253,94.361 C168.312,93.459 161.097,100.366 163.763,101.726 C166.427,103.087 170.83,95.868 169.253,94.361" id="Fill-61" fill="#2A5E9C"></path>
                <path d="M134.505,146.682 C133.414,148.819 133.899,153.364 135.199,156.459 C136.801,154.951 144.382,144.415 144.287,137.389 C143.196,141.773 137.32,152.2 135.842,152.677 C135.488,151.582 134.291,148.562 134.505,146.682" id="Fill-62" fill="#1A8363"></path>
                <path d="M148.964,126.494 C148.847,128.509 149.515,131.926 149.997,133.416 C151.394,132.466 158.024,125.185 158.22,119.262 C155.552,123.754 151.738,129.738 150.692,130.077 C150.198,128.55 149.528,127.824 148.964,126.494" id="Fill-63" fill="#1A8363"></path>
                <path d="M117.251,170.794 C115.954,172.941 114.814,177.024 114.269,179.072 C116.07,177.333 122.635,173.5 127.866,165.266 C125.544,167.722 117.667,174.544 116.583,175.354 C116.212,174.207 117.244,171.786 117.251,170.794" id="Fill-64" fill="#1A8363"></path>
                <path d="M103.921,180.388 C102.848,179.407 93.853,185.792 95.788,187.858 C97.72,189.926 105.875,182.175 103.921,180.388" id="Fill-65" fill="#F9D3AD"></path>
                <path d="M103.927,180.287 C103.212,179.633 97.196,183.9 98.492,185.283 C99.786,186.667 105.235,181.485 103.927,180.287" id="Fill-66" fill="#2A5E9C"></path>
                <path d="M224.132,11.277 C224.132,11.277 223.577,10.863 222.746,10.24 C221.915,9.629 220.81,8.813 219.646,8.085 C219.072,7.71 218.482,7.361 217.91,7.07 C217.623,6.927 217.362,6.747 217.083,6.651 C216.812,6.54 216.555,6.434 216.317,6.336 C215.85,6.103 215.415,6.082 215.124,6.002 C214.829,5.942 214.66,5.906 214.66,5.906 C214.66,5.906 214.83,5.929 215.127,5.968 C215.423,6.025 215.872,6.018 216.357,6.217 C216.604,6.298 216.873,6.387 217.154,6.479 C217.446,6.56 217.718,6.718 218.019,6.842 C218.621,7.096 219.242,7.404 219.848,7.742 C221.076,8.39 222.25,9.131 223.129,9.685 C223.997,10.241 224.575,10.612 224.575,10.612 L224.132,11.277" id="Fill-67" fill="#131514"></path>
                <path d="M224.096,11.697 C224.096,11.697 223.981,11.623 223.784,11.495 C223.592,11.377 223.294,11.2 222.938,11.004 C222.223,10.606 221.246,10.104 220.241,9.676 C219.235,9.248 218.194,8.886 217.383,8.758 C216.978,8.696 216.635,8.691 216.398,8.711 C216.162,8.758 216.025,8.785 216.025,8.785 C216.025,8.785 216.16,8.746 216.393,8.678 C216.63,8.636 216.98,8.607 217.398,8.635 C218.236,8.688 219.322,8.96 220.381,9.301 C221.439,9.643 222.474,10.06 223.238,10.399 C223.624,10.567 223.935,10.716 224.167,10.833 C224.384,10.947 224.508,11.012 224.508,11.012 L224.096,11.697" id="Fill-68" fill="#131514"></path>
                <path d="M224.562,11.014 C224.559,11.004 224.444,10.922 224.223,10.674 C223.993,10.429 223.741,10.123 223.413,9.731 C222.769,8.959 221.921,7.929 221.026,6.943 C220.13,5.959 219.183,5.015 218.375,4.432 C217.973,4.14 217.605,3.944 217.339,3.828 C217.058,3.741 216.9,3.693 216.9,3.693 C216.9,3.693 217.064,3.73 217.349,3.795 C217.627,3.892 218.013,4.063 218.444,4.328 C219.309,4.858 220.333,5.741 221.311,6.664 C222.287,7.588 223.217,8.561 223.913,9.28 C224.257,9.632 224.564,9.948 224.747,10.117 C224.925,10.295 225.088,10.405 225.088,10.405 L224.562,11.014" id="Fill-69" fill="#131514"></path>
                <path d="M224.638,10.321 C224.637,10.293 224.547,10.252 224.378,9.901 C224.208,9.567 224.105,9.223 223.943,8.752 C223.644,7.842 223.269,6.635 222.744,5.492 C222.469,4.929 222.184,4.363 221.835,3.891 C221.676,3.641 221.488,3.431 221.311,3.227 C221.145,3.008 220.934,2.863 220.765,2.697 C220.598,2.527 220.397,2.437 220.243,2.32 C220.087,2.203 219.931,2.141 219.804,2.087 C219.549,1.975 219.403,1.911 219.403,1.911 C219.403,1.911 219.553,1.963 219.818,2.056 C219.95,2.099 220.113,2.151 220.279,2.256 C220.446,2.36 220.658,2.44 220.842,2.598 C221.027,2.753 221.258,2.889 221.443,3.096 C221.642,3.292 221.854,3.495 222.037,3.738 C222.434,4.198 222.772,4.753 223.099,5.31 C223.732,6.437 224.208,7.64 224.577,8.517 C224.755,8.939 224.93,9.341 225.028,9.498 C225.087,9.66 225.277,9.817 225.25,9.807 L224.638,10.321" id="Fill-70" fill="#131514"></path>
                <path d="M224.759,10.417 C224.768,10.395 224.712,10.316 224.708,9.947 C224.696,9.589 224.744,9.238 224.787,8.759 C224.884,7.834 225.036,6.613 225.011,5.39 C224.993,4.781 224.956,4.167 224.833,3.609 C224.731,3.044 224.551,2.54 224.363,2.121 C224.274,1.908 224.147,1.738 224.057,1.572 C223.971,1.405 223.857,1.286 223.773,1.18 C223.6,0.971 223.5,0.853 223.5,0.853 C223.5,0.853 223.61,0.964 223.798,1.159 C223.893,1.256 224.015,1.369 224.118,1.531 C224.221,1.688 224.365,1.854 224.472,2.063 C224.701,2.473 224.927,2.979 225.081,3.551 C225.25,4.117 225.339,4.742 225.411,5.366 C225.537,6.619 225.482,7.878 225.461,8.804 C225.45,9.251 225.445,9.675 225.468,9.858 C225.46,10.034 225.552,10.248 225.537,10.228 L224.759,10.417" id="Fill-71" fill="#131514"></path>
                <path d="M219.942,1.911 C219.942,2.271 219.651,2.561 219.292,2.561 C218.933,2.561 218.642,2.271 218.642,1.911 C218.642,1.551 218.933,1.261 219.292,1.261 C219.651,1.261 219.942,1.551 219.942,1.911" id="Fill-72" fill="#131514"></path>
                <path d="M224.079,0.65 C224.079,1.01 223.788,1.3 223.429,1.3 C223.07,1.3 222.779,1.01 222.779,0.65 C222.779,0.291 223.07,0 223.429,0 C223.788,0 224.079,0.291 224.079,0.65" id="Fill-73" fill="#131514"></path>
                <path d="M217.303,3.693 C217.303,4.053 217.011,4.343 216.653,4.343 C216.293,4.343 216.002,4.053 216.002,3.693 C216.002,3.334 216.293,3.042 216.653,3.042 C217.011,3.042 217.303,3.334 217.303,3.693" id="Fill-74" fill="#131514"></path>
                <path d="M215.31,5.906 C215.31,6.265 215.018,6.556 214.66,6.556 C214.3,6.556 214.009,6.265 214.009,5.906 C214.009,5.547 214.3,5.256 214.66,5.256 C215.018,5.256 215.31,5.547 215.31,5.906" id="Fill-75" fill="#131514"></path>
                <path d="M216.653,8.661 C216.653,9.019 216.362,9.31 216.002,9.31 C215.643,9.31 215.352,9.019 215.352,8.661 C215.352,8.301 215.643,8.01 216.002,8.01 C216.362,8.01 216.653,8.301 216.653,8.661" id="Fill-76" fill="#131514"></path>
                <path d="M190.959,99.639 L181.76,98.033 C181.76,98.033 179.893,106.504 178.25,111.102 C178.692,117.569 188.708,137.472 188.708,143.552 C190.625,145.468 202.234,145.147 207.317,145.147 C207.774,143.246 202.792,142.23 197.711,142.23 C201.462,141.503 203.363,140.901 206.872,142.23 C207.157,138.947 194.635,140.887 192.336,140.282 C189.931,135.669 182.439,119.742 183.332,111.947 C184.183,108.39 189.266,103.873 190.959,99.639" id="Fill-77" fill="#817350"></path>
                <g id="Group-81" transform="translate(146.000000, 9.369000)">
                    <path d="M54.713,85.826 L46.121,84.326 C46.121,84.326 44.377,92.237 42.843,96.528 C43.255,102.569 52.609,121.155 52.609,126.832 C54.399,128.623 65.241,128.323 69.986,128.323 C70.413,126.548 65.763,125.598 61.017,125.598 C64.52,124.921 66.294,124.357 69.571,125.598 C69.837,122.532 58.144,124.343 55.998,123.778 C53.75,119.473 46.753,104.598 47.588,97.318 C48.382,93.998 53.128,89.781 54.713,85.826" id="Fill-78" fill="#746648"></path>
                    <path d="M88.654,7.488 C88.654,3.485 85.738,-0.553 79.674,0.591 C70.286,2.363 74.371,13.023 76.816,16.81 C80.36,22.3 87.795,39.571 69.609,42.546 C51.422,45.519 48.762,39.089 32.406,49.155 C16.048,59.221 17.502,68.724 0.171,72.056 C15.076,74.964 30.378,82.236 33.923,88.869 C35.21,90.156 34.006,91.729 34.236,93.217 C35.754,91.7 38.721,92.729 38.721,92.729 C38.721,92.729 38.57,94.539 37.411,95.418 C39.528,96.445 42.029,94.927 42.029,94.927 C42.029,94.927 42.729,95.423 42.021,96.706 C45.429,96.008 48.392,94.644 50.393,92.185 C57.772,90.467 72.1,80.041 80.475,64.049 C86.937,57.587 98.708,49.408 93.904,35.34 C89.1,21.27 83.449,15.665 83.449,13.149 C83.449,10.633 88.654,10.576 88.654,7.488" id="Fill-80" fill="#2A5E9C"></path>
                </g>
                <path d="M234.647,16.492 C234.647,12.482 226.533,10.72 223.5,14.026 C219.053,18.873 222.915,25.177 226.389,27.966 C229.863,30.753 226.989,22.647 228.576,20.203 C230.164,17.757 234.647,19.331 234.647,16.492" id="Fill-82" fill="#07121F"></path>
                <path d="M222.627,15.157 C220.632,18.487 226.023,25.7 228.696,20.036 C229.754,16.842 222.627,17.807 222.627,15.157" id="Fill-83" fill="#D6D6A9"></path>
                <path d="M232.672,18.431 C234.516,17.228 231.599,13.153 226.824,12.398 C230.805,14.418 230.996,19.523 232.672,18.431" id="Fill-84" fill="#D6D6A9"></path>
                <path d="M233.994,13.841 C234.2,14.827 232.799,15.598 232.799,15.598 C232.799,15.598 233.393,17.014 234.173,18.123 C236.349,17.861 238.895,17.886 240.919,18.169 C240.19,16.024 236.139,13.841 233.994,13.841" id="Fill-85" fill="#817350"></path>
                <path d="M232.799,15.598 C232.799,15.598 233.177,17.552 234.056,18.431 C236.233,18.169 238.848,18.052 240.919,18.169 C239.356,16.607 232.799,15.598 232.799,15.598" id="Fill-86" fill="#6D6045"></path>
                <path d="M229.023,15.766 C228.777,16.495 227.987,16.886 227.257,16.638 C226.531,16.394 226.138,15.603 226.383,14.874 C226.628,14.145 227.419,13.754 228.151,14 C228.875,14.246 229.268,15.037 229.023,15.766" id="Fill-87" fill="#3F2A1C"></path>
                <g id="Group-91" transform="translate(227.000000, 14.369000)">
                    <path d="M1.758,0.857 C1.689,1.053 1.477,1.159 1.284,1.093 C1.085,1.027 0.982,0.814 1.047,0.618 C1.114,0.422 1.327,0.316 1.52,0.383 C1.718,0.449 1.824,0.662 1.758,0.857" id="Fill-88" fill="#FFFFFE"></path>
                    <path d="M10.872,30.34 C15.218,35.944 10.683,49.266 3.364,47.435 C5.307,45.147 10.872,42.462 10.872,30.34" id="Fill-90" fill="#1E5988"></path>
                </g>
                <path d="M222.816,63.325 C224.948,60.461 219.002,50.45 204.009,50.45 C189.017,50.45 176.565,56.619 162.901,67.983 C155.042,74.512 161.33,72.215 167.375,69.555 C163.99,72.94 150.69,85.272 162.296,80.437 C160.725,83.217 163.99,83.459 170.771,79.118 C168.352,81.536 170.88,85.272 180.434,77.052 C179.103,79.831 179.103,81.767 190.468,75.721 C187.871,78.32 188.896,79.59 198.691,75.962 C204.372,73.786 217.814,70.038 222.816,63.325" id="Fill-92" fill="#AFD3DE"></path>
                <path d="M170.503,69.954 C168.444,72.013 165.67,76.53 172.646,73.669 C169.836,76.48 175.12,77.23 180.967,72.297 C180.28,75.157 184.999,74.785 191.347,69.595 C187.873,71.226 182.21,71.297 183.583,68.437 C180.624,71.397 175.806,75.514 174.661,70.71 C170.63,73.113 169.129,73.042 170.503,69.954" id="Fill-93" fill="#181712"></path>
                <path d="M207.218,63.718 C206.904,63.273 203.486,64.749 204.6,65.477 C205.716,66.206 208.333,65.306 207.218,63.718" id="Fill-94" fill="#181712"></path>
                <path d="M199.99,62.67 C199.676,62.223 196.258,63.699 197.375,64.428 C198.489,65.158 201.105,64.257 199.99,62.67" id="Fill-95" fill="#181712"></path>
                <path d="M201.773,59.463 C201.458,59.017 198.042,60.493 199.157,61.221 C200.272,61.951 202.888,61.05 201.773,59.463" id="Fill-96" fill="#181712"></path>
                <path d="M207.251,58.832 C206.975,58.441 203.985,59.733 204.959,60.372 C205.936,61.011 208.228,60.222 207.251,58.832" id="Fill-97" fill="#181712"></path>
                <path d="M193.554,61.55 C193.28,61.159 190.289,62.451 191.264,63.089 C192.242,63.727 194.531,62.939 193.554,61.55" id="Fill-98" fill="#181712"></path>
                <path d="M178.502,64.889 C178.227,64.498 175.235,65.789 176.211,66.427 C177.189,67.066 179.48,66.277 178.502,64.889" id="Fill-99" fill="#181712"></path>
                <path d="M179.863,60.993 C179.588,60.602 176.596,61.893 177.574,62.532 C178.55,63.17 180.84,62.381 179.863,60.993" id="Fill-100" fill="#181712"></path>
                <path d="M185.796,62.073 C185.522,61.681 182.53,62.973 183.505,63.611 C184.483,64.249 186.773,63.462 185.796,62.073" id="Fill-101" fill="#181712"></path>
                <path d="M186.622,57.617 C186.345,57.226 183.354,58.518 184.331,59.156 C185.306,59.793 187.597,59.006 186.622,57.617" id="Fill-102" fill="#181712"></path>
                <path d="M190.612,58.292 C190.336,57.9 187.344,59.192 188.321,59.831 C189.298,60.469 191.588,59.681 190.612,58.292" id="Fill-103" fill="#181712"></path>
                <path d="M197.85,54.922 C197.575,54.531 194.583,55.823 195.557,56.461 C196.536,57.099 198.826,56.312 197.85,54.922" id="Fill-104" fill="#181712"></path>
                <path d="M195.682,71.319 C195.409,70.927 192.417,72.219 193.392,72.858 C194.369,73.497 196.661,72.709 195.682,71.319" id="Fill-105" fill="#181712"></path>
                <path d="M172.082,63.97 C171.806,63.579 168.816,64.871 169.791,65.509 C170.768,66.147 173.058,65.359 172.082,63.97" id="Fill-106" fill="#181712"></path>
                <path d="M208.613,54.361 C208.337,53.969 205.346,55.261 206.322,55.899 C207.298,56.538 209.589,55.75 208.613,54.361" id="Fill-107" fill="#181712"></path>
                <path d="M214.208,59.343 C213.689,58.488 210.627,60.523 211.378,61.273 C212.127,62.025 214.937,60.545 214.208,59.343" id="Fill-108" fill="#181712"></path>
                <path d="M212.429,63.722 C211.908,62.865 208.848,64.901 209.598,65.651 C210.349,66.402 213.159,64.922 212.429,63.722" id="Fill-109" fill="#181712"></path>
                <path d="M204.259,68.643 C203.74,67.788 200.677,69.823 201.428,70.573 C202.178,71.325 204.988,69.845 204.259,68.643" id="Fill-110" fill="#181712"></path>
                <path d="M208.932,85.699 C206.558,86.459 202.071,94.912 189.167,94.912 C195.544,99.754 198.771,100.514 208.932,85.699" id="Fill-111" fill="#1E5988"></path>
            </g>
        </g>
    </g>
</svg>